<?xml version="1.0" standalone="no"?>
<!DOCTYPE svg PUBLIC "-//W3C//DTD SVG 20010904//EN"
 "http://www.w3.org/TR/2001/REC-SVG-20010904/DTD/svg10.dtd">
<svg version="1.0" xmlns="http://www.w3.org/2000/svg"
 width="452.000000pt" height="452.000000pt" viewBox="0 0 452.000000 452.000000"
 preserveAspectRatio="xMidYMid meet">
<metadata>
Created by potrace 1.14, written by Peter Selinger 2001-2017
</metadata>
<g transform="translate(0.000000,452.000000) scale(0.100000,-0.100000)"
fill="#000000" stroke="none">
<path d="M1527 4459 c-113 -18 -227 -110 -267 -216 -67 -175 12 -365 185 -447
29 -14 73 -21 157 -25 64 -3 118 -8 120 -11 49 -60 95 -156 124 -260 68 -244
139 -568 139 -631 0 -25 -5 -57 -12 -70 -6 -13 -21 -49 -33 -79 -33 -84 -96
-218 -184 -395 -44 -88 -80 -162 -81 -165 -3 -12 -127 -254 -260 -505 -23 -44
-66 -125 -95 -180 -29 -55 -94 -174 -143 -265 -49 -91 -105 -194 -125 -230
-19 -36 -75 -136 -124 -222 -114 -202 -130 -239 -134 -312 -18 -328 375 -498
600 -260 34 36 211 348 441 774 43 80 94 174 113 210 54 99 152 287 244 467
46 90 85 163 88 163 3 0 16 -28 29 -62 68 -176 191 -441 267 -575 77 -135 235
-381 269 -419 5 -7 19 -24 30 -40 100 -141 241 -301 420 -477 166 -163 218
-192 345 -192 70 0 95 5 142 27 90 42 173 141 195 232 11 50 10 134 -4 180
-23 76 -51 113 -201 262 -423 421 -695 875 -895 1489 -40 122 -65 206 -73 240
-1 6 -13 53 -27 105 -33 125 -77 320 -127 560 -59 283 -124 540 -165 659 -128
367 -325 576 -614 653 -82 21 -261 30 -344 17z"/>
</g>
</svg>
